<?xml version="1.0" encoding="utf-8"?>
<!-- Generator: Adobe Illustrator 19.0.0, SVG Export Plug-In . SVG Version: 6.00 Build 0)  -->
<svg version="1.1" id="Layer_1" xmlns="http://www.w3.org/2000/svg" xmlns:xlink="http://www.w3.org/1999/xlink" 
	x="100%" y="100%" viewBox="0 0 225 159" style="enable-background:new 0 0 225 159;" xml:space="preserve" fill="currentColor">

<g>
	<path class="st0" d="M0,96.5c0-1,0-2,0-3c0.1-1.6,0.3-3.7,0.8-6c0,0,0.2-1.1,0.5-2.1c2.3-8.8,6.8-16.3,14.3-21.6
		c1.3-0.9,3.5-2.7,3.5-2.7s-1-2.2-1.5-3.8C8.3,28.2,29.6-1.9,62.8,0.1c10.8,0.7,20.4,5.1,27.7,13.3c1.3,1.5,3.5,3.4,3.5,3.4
		s1.9-1.5,3.3-2.8c8.6-8.3,19.7-9.5,30.8-8.7c8.1,0.6,15.2,4.5,21,10.3c2.9,2.9,8,9.4,8,9.4s7.8-2.8,12-2.8c2-0.3,4.3-0.5,6.7-0.5
		c3.1,0,5.9,0.2,8.3,0.5c0.7,0.1,1.3,0.2,2,0.3c0.1,0,0.1,0,0.2,0.1c0.6,0.2,1.2,0.4,1.8,0.6c7.7,1.9,14.1,5.1,19.3,9.4
		c11.2,9.3,15,21.6,15.7,24.6c0.5,2.2,0.9,4.1,1.2,6c0.2,1.2,0.3,2.2,0.3,2.7c0.1,1.2,0.3,3.2,0.3,5.1c0,2.3-0.4,4-0.8,6.3
		c-0.5,2.6-1.2,4.7-2.3,8.3c-0.4,1.3-0.6,2-0.9,2.7c-0.7,2.1-2.1,5.2-4.6,9.1c-4.4,6.9-7.6,11.2-12.2,14.5
		c-11.7,8.5-31.1,8.4-33.8,8.2c-1.3-0.1-3.3-0.3-3.3-0.3s-1.4,1.9-2.2,3.1c-9.4,13.1-24.3,18.2-39.6,13.3c-0.6-0.2-2.1-0.5-2.1-0.5
		l-2.3-0.6c0,0-1.7,2.2-2.7,4c-8.4,14.2-21.1,21-37.5,20.1c-7-0.4-18.7-4.2-22.8-7.3c-4.1-3.2-9.4-10.3-10-11.3
		c-0.6-0.9-3.2-7.9-3.2-7.9s-2.8,0.5-3.5,0.5c-20,0.8-34.1-9.3-40-28.4c-0.3-1.1-0.5-2.1-0.5-2.1C0.3,100.1,0.1,98.1,0,96.5z"/>
	<path class="st1" d="M108,29.1c0.7,0.2,1.3,0.4,2,0.6"/>
</g>
</svg>
