<svg id="coffee-cup-coffee-svgrepo-com_1_" data-name="coffee-cup-coffee-svgrepo-com (1)" xmlns="http://www.w3.org/2000/svg" width="100%" height="100%" viewBox="0 0 60 60">
  <circle id="Ellipse_13" data-name="Ellipse 13" cx="30" cy="30" r="30" transform="translate(0 0)" fill="#45b39c"/>
  <path id="Path_6" data-name="Path 6" d="M174.465,116.624,156.388,98.552l-.044-.044a.5.5,0,0,0-.356-.15h-.606l-1.35-1.344-.056-.062-.125-.125a1.834,1.834,0,0,0-1.25-.494H136.642a1.862,1.862,0,0,0-1.856,1.863v.162h-1.531a.523.523,0,0,0-.5.375l-.538,1.969a.5.5,0,0,0,.162.525h-.006l1.3,1.3.956,7.3,1.631,12.407.925,7.032a1.588,1.588,0,0,0,.488.969L150.4,142.965A30.018,30.018,0,0,0,174.465,116.624Z" transform="translate(-114.621 -83.525)" opacity="0.1"/>
  <path id="Path_7" data-name="Path 7" d="M171.326,99.081H151.652v-.7a2.025,2.025,0,0,1,2.025-2.025H169.3a2.025,2.025,0,0,1,2.025,2.025v.7Z" transform="translate(-131.489 -83.543)" fill="#d15241"/>
  <path id="Path_8" data-name="Path 8" d="M157.023,113.9l-.539-1.964a.516.516,0,0,0-.5-.379H133.25a.516.516,0,0,0-.5.379l-.539,1.964a.516.516,0,0,0,.5.653h23.815A.516.516,0,0,0,157.023,113.9Z" transform="translate(-114.618 -96.723)" fill="#e56353"/>

  <g id="Group_52" data-name="Group 52" transform="translate(18.893 17.828)">
    <path id="Path_9" data-name="Path 9" d="M163.681,298.2a1.662,1.662,0,0,0,1.648,1.446h11.576a1.662,1.662,0,0,0,1.648-1.446l.924-7.03H162.757Z" transform="translate(-160.011 -270.289)" fill="#fcd462"/>
    <path id="Path_10" data-name="Path 10" d="M164.316,134.091H142.1l1.114,8.476H163.2Z" transform="translate(-142.103 -134.091)" fill="#fcd462"/>
  </g>
  <path id="Path_11" data-name="Path 11" d="M150.485,197.839l1.632,12.409h16.721l1.632-12.409Z" transform="translate(-130.477 -171.535)" fill="#dc8744"/>
  <g id="Group_53" data-name="Group 53" transform="translate(25.742 28.25)">
    <path id="Path_12" data-name="Path 12" d="M211.359,231.525a4.8,4.8,0,0,0,1.395-5,3.8,3.8,0,0,0-3.094,1.529,7.969,7.969,0,0,0-.638,1.114c-.078.155-.156.31-.238.463a11.713,11.713,0,0,1-1.8,2.511,3.843,3.843,0,0,1-.826.691A4.707,4.707,0,0,0,211.359,231.525Z" transform="translate(-204.489 -224.654)" fill="#ad6636"/>
    <path id="Path_13" data-name="Path 13" d="M195.415,219.314a10.759,10.759,0,0,0,1.656-2.308c.078-.147.153-.3.228-.444a8.819,8.819,0,0,1,.717-1.245,4.77,4.77,0,0,1,3.269-1.887c-.018-.019-.035-.039-.054-.057-1.443-1.442-4.118-1.106-5.975.751-1.812,1.812-2.176,4.4-.853,5.867A1.946,1.946,0,0,0,195.415,219.314Z" transform="translate(-193.611 -212.477)" fill="#ad6636"/>
  </g>
  <path id="Path_14" data-name="Path 14" d="M201.279,226.174a11.714,11.714,0,0,0,1.8-2.511c.082-.153.16-.308.238-.463a7.97,7.97,0,0,1,.638-1.114,3.8,3.8,0,0,1,3.094-1.529,2.95,2.95,0,0,0-.589-.915,4.77,4.77,0,0,0-3.269,1.887,8.794,8.794,0,0,0-.717,1.245c-.075.149-.15.3-.228.444a10.765,10.765,0,0,1-1.656,2.308,1.948,1.948,0,0,1-1.011.676c.033.037.067.073.1.109a2.926,2.926,0,0,0,.773.554A3.844,3.844,0,0,0,201.279,226.174Z" transform="translate(-173.043 -190.438)" fill="#995b30"/>
</svg>
